<svg width="31" height="24" viewBox="0 0 31 24" fill="none" xmlns="http://www.w3.org/2000/svg">
<path d="M26.2299 2.24542C24.2665 1.35441 22.1408 0.707703 19.9264 0.33405C19.907 0.333446 19.8877 0.336993 19.8698 0.344442C19.852 0.351891 19.836 0.363061 19.8231 0.377164C19.5574 0.851415 19.2473 1.46938 19.0407 1.94363C16.692 1.59872 14.3034 1.59872 11.9548 1.94363C11.7481 1.45501 11.4381 0.851415 11.1576 0.377164C11.1428 0.348422 11.0985 0.33405 11.0543 0.33405C8.83991 0.707703 6.7289 1.35441 4.75075 2.24542C4.73599 2.24542 4.72123 2.2598 4.70647 2.27417C0.691118 8.12326 -0.416055 13.8143 0.130151 19.4478C0.130151 19.4765 0.144913 19.5053 0.174437 19.5197C2.83165 21.4167 5.38553 22.5664 7.90989 23.328C7.95417 23.3424 7.99846 23.328 8.01322 23.2993C8.60372 22.5089 9.13516 21.6753 9.59279 20.7987C9.62232 20.7412 9.59279 20.6837 9.53374 20.6694C8.69229 20.3532 7.89513 19.9795 7.11272 19.5484C7.05367 19.5197 7.05367 19.4334 7.09796 19.3903C7.26035 19.2753 7.42273 19.146 7.58512 19.031C7.61464 19.0023 7.65893 19.0023 7.68845 19.0167C12.7667 21.2729 18.2435 21.2729 23.2627 19.0167C23.2922 19.0023 23.3365 19.0023 23.366 19.031C23.5284 19.1604 23.6908 19.2753 23.8532 19.4047C23.9122 19.4478 23.9122 19.534 23.8384 19.5628C23.0708 20.0083 22.2589 20.3676 21.4174 20.6837C21.3584 20.6981 21.3436 20.77 21.3584 20.8131C21.8307 21.6897 22.3622 22.5232 22.9379 23.3137C22.9822 23.328 23.0265 23.3424 23.0708 23.328C25.6099 22.5664 28.1638 21.4167 30.821 19.5197C30.8505 19.5053 30.8653 19.4765 30.8653 19.4478C31.5148 12.9376 29.7876 7.28973 26.289 2.27417C26.2742 2.2598 26.2594 2.24542 26.2299 2.24542ZM10.3604 16.0131C8.83991 16.0131 7.57035 14.6478 7.57035 12.9664C7.57035 11.2849 8.81039 9.91967 10.3604 9.91967C11.9252 9.91967 13.1653 11.2993 13.1505 12.9664C13.1505 14.6478 11.9105 16.0131 10.3604 16.0131ZM20.6498 16.0131C19.1292 16.0131 17.8597 14.6478 17.8597 12.9664C17.8597 11.2849 19.0997 9.91967 20.6498 9.91967C22.2146 9.91967 23.4546 11.2993 23.4398 12.9664C23.4398 14.6478 22.2146 16.0131 20.6498 16.0131Z" fill="white"/>
</svg>
