<svg width="24" height="25" viewBox="0 0 24 25" fill="none" xmlns="http://www.w3.org/2000/svg">
<path d="M6.96 0.833984H17.04C20.88 0.833984 24 3.95398 24 7.79398V17.874C24 19.7199 23.2667 21.4902 21.9615 22.7954C20.6562 24.1007 18.8859 24.834 17.04 24.834H6.96C3.12 24.834 0 21.714 0 17.874V7.79398C0 5.94808 0.733284 4.17777 2.03854 2.87252C3.34379 1.56727 5.11409 0.833984 6.96 0.833984ZM6.72 3.23398C5.57427 3.23398 4.47546 3.68913 3.6653 4.49928C2.85514 5.30944 2.4 6.40825 2.4 7.55398V18.114C2.4 20.502 4.332 22.434 6.72 22.434H17.28C18.4257 22.434 19.5245 21.9788 20.3347 21.1687C21.1449 20.3585 21.6 19.2597 21.6 18.114V7.55398C21.6 5.16598 19.668 3.23398 17.28 3.23398H6.72ZM18.3 5.03398C18.6978 5.03398 19.0794 5.19202 19.3607 5.47332C19.642 5.75463 19.8 6.13616 19.8 6.53398C19.8 6.93181 19.642 7.31334 19.3607 7.59465C19.0794 7.87595 18.6978 8.03398 18.3 8.03398C17.9022 8.03398 17.5206 7.87595 17.2393 7.59465C16.958 7.31334 16.8 6.93181 16.8 6.53398C16.8 6.13616 16.958 5.75463 17.2393 5.47332C17.5206 5.19202 17.9022 5.03398 18.3 5.03398ZM12 6.83398C13.5913 6.83398 15.1174 7.46613 16.2426 8.59134C17.3679 9.71656 18 11.2427 18 12.834C18 14.4253 17.3679 15.9514 16.2426 17.0766C15.1174 18.2018 13.5913 18.834 12 18.834C10.4087 18.834 8.88258 18.2018 7.75736 17.0766C6.63214 15.9514 6 14.4253 6 12.834C6 11.2427 6.63214 9.71656 7.75736 8.59134C8.88258 7.46613 10.4087 6.83398 12 6.83398ZM12 9.23398C11.0452 9.23398 10.1295 9.61327 9.45442 10.2884C8.77928 10.9635 8.4 11.8792 8.4 12.834C8.4 13.7888 8.77928 14.7044 9.45442 15.3796C10.1295 16.0547 11.0452 16.434 12 16.434C12.9548 16.434 13.8705 16.0547 14.5456 15.3796C15.2207 14.7044 15.6 13.7888 15.6 12.834C15.6 11.8792 15.2207 10.9635 14.5456 10.2884C13.8705 9.61327 12.9548 9.23398 12 9.23398Z" fill="white"/>
</svg>
