<svg width="24" height="25" viewBox="0 0 24 25" fill="none" xmlns="http://www.w3.org/2000/svg">
<path d="M12 0.833984C5.376 0.833984 0 6.20998 0 12.834C0 19.458 5.376 24.834 12 24.834C18.624 24.834 24 19.458 24 12.834C24 6.20998 18.624 0.833984 12 0.833984ZM17.568 8.99399C17.388 10.89 16.608 15.498 16.212 17.622C16.044 18.522 15.708 18.822 15.396 18.858C14.7 18.918 14.172 18.402 13.5 17.958C12.444 17.262 11.844 16.83 10.824 16.158C9.636 15.378 10.404 14.946 11.088 14.25C11.268 14.07 14.34 11.274 14.4 11.022C14.4083 10.9838 14.4072 10.9442 14.3968 10.9065C14.3863 10.8689 14.3668 10.8344 14.34 10.806C14.268 10.746 14.172 10.77 14.088 10.782C13.98 10.806 12.3 11.922 9.024 14.13C8.544 14.454 8.112 14.622 7.728 14.61C7.296 14.598 6.48 14.37 5.868 14.166C5.112 13.926 4.524 13.794 4.572 13.374C4.596 13.158 4.896 12.942 5.46 12.714C8.964 11.19 11.292 10.182 12.456 9.70199C15.792 8.30999 16.476 8.06998 16.932 8.06998C17.028 8.06998 17.256 8.09398 17.4 8.21398C17.52 8.30998 17.556 8.44198 17.568 8.53798C17.556 8.60998 17.58 8.82598 17.568 8.99399Z" fill="white"/>
</svg>
