<svg width="21" height="25" viewBox="0 0 21 25" fill="none" xmlns="http://www.w3.org/2000/svg">
<path d="M16.6607 4.59398C15.7452 3.55348 15.2407 2.21723 15.2411 0.833984H11.1027V17.3673C11.0708 18.262 10.6913 19.1095 10.0443 19.7312C9.39731 20.353 8.53319 20.7005 7.63393 20.7007C5.73214 20.7007 4.15179 19.154 4.15179 17.234C4.15179 14.9407 6.375 13.2207 8.66518 13.9273V9.71398C4.04464 9.10065 0 12.674 0 17.234C0 21.674 3.69643 24.834 7.62054 24.834C11.8259 24.834 15.2411 21.434 15.2411 17.234V8.84732C16.9192 10.0471 18.934 10.6908 21 10.6873V6.56732C21 6.56732 18.4821 6.68732 16.6607 4.59398Z" fill="white"/>
</svg>
