<svg width="29" height="24" viewBox="0 0 29 24" fill="none" xmlns="http://www.w3.org/2000/svg">
<path d="M29 3.03987C27.9326 3.5134 26.782 3.82457 25.5899 3.9734C26.8098 3.25634 27.7524 2.11987 28.196 0.753396C27.0454 1.42987 25.7701 1.9034 24.4254 2.17398C23.3303 1.01046 21.7916 0.333984 20.0449 0.333984C16.7873 0.333984 14.1257 2.93163 14.1257 6.1381C14.1257 6.5981 14.1812 7.04457 14.2782 7.46398C9.34321 7.22046 4.94885 4.90693 2.0239 1.40281C1.51099 2.25516 1.21989 3.25634 1.21989 4.31163C1.21989 6.32751 2.25956 8.1134 3.86759 9.1281C2.88337 9.1281 1.96845 8.85751 1.16444 8.45163V8.49222C1.16444 11.3063 3.21606 13.6605 5.93308 14.1881C5.06091 14.4221 4.14489 14.4545 3.25765 14.2828C3.63416 15.4362 4.37154 16.4454 5.36613 17.1685C6.36073 17.8917 7.56252 18.2925 8.80258 18.3146C6.70059 19.9388 4.09495 20.8167 1.41396 20.804C0.942639 20.804 0.471319 20.7769 0 20.7228C2.63384 22.3734 5.76673 23.334 9.12142 23.334C20.0449 23.334 26.0473 14.4857 26.0473 6.81457C26.0473 6.55751 26.0473 6.31398 26.0335 6.05692C27.1979 5.24516 28.196 4.21693 29 3.03987Z" fill="white"/>
</svg>
