<svg width="210" height="34" viewBox="0 0 210 34" fill="none" xmlns="http://www.w3.org/2000/svg">
<path d="M0 13.0917C0.512821 9.0486 0.641025 4.97297 0.0512813 0.87915H5.65384C5.34615 4.94958 5.34615 9.02131 5.65384 13.0917H0Z" fill="white"/>
<path d="M8.12821 8.716C9.67949 6.63076 14.9872 5.61608 14.9872 5.61608C14.9872 5.61608 12.1154 10.5973 9.76923 11.3768C9.11538 11.5977 8.14103 11.5717 7.74359 10.948C7.3718 10.3166 7.71795 9.31494 8.12821 8.716Z" fill="white"/>
<path d="M9.70513 12.65C10.1667 12.4941 10.7179 12.4292 11.3077 12.4162C14.4872 12.3772 19 14.1961 19 14.1961C19 14.1961 12.859 17.1583 9.83333 16.3528C8.98718 16.1189 7.94872 15.4173 7.9359 14.5599C7.89744 13.7024 8.89744 12.9358 9.70513 12.65Z" fill="white"/>
<path d="M0.0256387 33.8792C0.910254 27.7858 0.794872 21.6276 0 15.4303H5.66667C5.19231 21.5626 5.12821 27.7209 5.64103 33.8792H0.0256387Z" fill="white"/>
<path d="M7.88462 18.1847C8.08975 17.9898 8.35898 17.8988 8.64103 17.8858H8.75641C9.19231 17.8858 9.64103 18.0547 9.97436 18.2756C12.0385 19.6268 13.5769 25.1744 13.5769 25.1744C13.5769 25.1744 8.70513 22.8488 7.70513 20.4193C7.44872 19.7437 7.35898 18.6914 7.88462 18.1847Z" fill="white"/>
<path d="M25.5942 24.8792V6.53733H32.9381C34.2874 6.53733 35.4129 6.73735 36.3145 7.13738C37.216 7.53742 37.8937 8.09269 38.3475 8.80319C38.8012 9.50773 39.0281 10.3197 39.0281 11.2392C39.0281 11.9557 38.8848 12.5856 38.5982 13.1289C38.3116 13.6663 37.9176 14.1081 37.416 14.4544C36.9205 14.7947 36.3533 15.0365 35.7144 15.1798V15.359C36.413 15.3888 37.0668 15.5858 37.6758 15.9501C38.2907 16.3143 38.7893 16.8248 39.1714 17.4815C39.5535 18.1323 39.7446 18.9085 39.7446 19.8101C39.7446 20.7833 39.5028 21.652 39.0192 22.4163C38.5415 23.1745 37.834 23.7746 36.8966 24.2164C35.9592 24.6582 34.8039 24.8792 33.4306 24.8792H25.5942ZM29.4721 21.7087H32.6336C33.7142 21.7087 34.5024 21.5028 34.9979 21.0908C35.4935 20.6728 35.7413 20.1176 35.7413 19.425C35.7413 18.9175 35.6189 18.4697 35.3741 18.0816C35.1293 17.6935 34.78 17.389 34.3262 17.1681C33.8784 16.9471 33.3441 16.8367 32.7231 16.8367H29.4721V21.7087ZM29.4721 14.2126H32.347C32.8783 14.2126 33.35 14.1201 33.762 13.935C34.1799 13.7439 34.5083 13.4752 34.7472 13.1289C34.992 12.7826 35.1144 12.3677 35.1144 11.884C35.1144 11.2213 34.8785 10.6869 34.4068 10.2809C33.9411 9.87492 33.2784 9.67192 32.4186 9.67192H29.4721V14.2126ZM45.1102 25.1389C44.2325 25.1389 43.4504 24.9866 42.7637 24.6821C42.0771 24.3716 41.5338 23.9149 41.1337 23.3119C40.7397 22.7029 40.5427 21.9446 40.5427 21.037C40.5427 20.2728 40.683 19.631 40.9636 19.1115C41.2442 18.5921 41.6263 18.1741 42.1099 17.8577C42.5936 17.5412 43.1429 17.3024 43.7578 17.1412C44.3788 16.98 45.0296 16.8665 45.7102 16.8009C46.5103 16.7173 47.1551 16.6397 47.6447 16.568C48.1343 16.4904 48.4896 16.377 48.7105 16.2277C48.9314 16.0784 49.0419 15.8575 49.0419 15.5649V15.5112C49.0419 14.944 48.8627 14.5052 48.5045 14.1947C48.1522 13.8842 47.6507 13.729 46.9999 13.729C46.3133 13.729 45.767 13.8812 45.361 14.1857C44.955 14.4843 44.6863 14.8604 44.5549 15.3142L41.0263 15.0276C41.2054 14.1917 41.5577 13.4692 42.0831 12.8602C42.6085 12.2453 43.2862 11.7736 44.1161 11.4452C44.952 11.1108 45.9192 10.9437 47.0178 10.9437C47.7821 10.9437 48.5135 11.0332 49.212 11.2123C49.9166 11.3915 50.5405 11.6691 51.0838 12.0453C51.6331 12.4214 52.066 12.905 52.3824 13.4961C52.6989 14.0812 52.8571 14.7828 52.8571 15.6008V24.8792H49.2389V22.9715H49.1314C48.9105 23.4014 48.615 23.7806 48.2448 24.1089C47.8746 24.4314 47.4298 24.6851 46.9103 24.8702C46.3909 25.0493 45.7908 25.1389 45.1102 25.1389ZM46.2028 22.5058C46.7641 22.5058 47.2596 22.3954 47.6895 22.1744C48.1194 21.9476 48.4567 21.6431 48.7015 21.2609C48.9463 20.8788 49.0687 20.4459 49.0687 19.9623V18.5025C48.9493 18.5801 48.7851 18.6518 48.5762 18.7174C48.3732 18.7772 48.1433 18.8339 47.8865 18.8876C47.6298 18.9354 47.3731 18.9802 47.1163 19.0219C46.8596 19.0578 46.6267 19.0906 46.4178 19.1205C45.97 19.1861 45.5789 19.2906 45.2445 19.4339C44.9102 19.5772 44.6505 19.7713 44.4654 20.0161C44.2803 20.2549 44.1877 20.5534 44.1877 20.9117C44.1877 21.4311 44.3758 21.8282 44.752 22.1028C45.1341 22.3715 45.6177 22.5058 46.2028 22.5058ZM54.8083 24.8792V11.1228H58.4444V13.5499H58.6056C58.8922 12.7438 59.3698 12.1079 60.0385 11.6422C60.7073 11.1765 61.5073 10.9437 62.4387 10.9437C63.3821 10.9437 64.1852 11.1795 64.8479 11.6512C65.5106 12.1169 65.9525 12.7498 66.1734 13.5499H66.3167C66.5973 12.7617 67.1048 12.1318 67.8392 11.6601C68.5795 11.1825 69.4542 10.9437 70.4633 10.9437C71.747 10.9437 72.7888 11.3527 73.5889 12.1706C74.395 12.9826 74.798 14.135 74.798 15.6276V24.8792H70.9917V16.3799C70.9917 15.6157 70.7887 15.0425 70.3827 14.6604C69.9767 14.2783 69.4692 14.0872 68.8602 14.0872C68.1676 14.0872 67.6272 14.3081 67.2391 14.75C66.851 15.1858 66.657 15.762 66.657 16.4785V24.8792H62.9582V16.2993C62.9582 15.6247 62.7641 15.0873 62.376 14.6873C61.9939 14.2872 61.4894 14.0872 60.8625 14.0872C60.4386 14.0872 60.0564 14.1947 59.7161 14.4096C59.3818 14.6186 59.1161 14.9141 58.919 15.2963C58.722 15.6724 58.6235 16.1142 58.6235 16.6217V24.8792H54.8083ZM76.8745 24.8792V6.53733H80.6897V13.4334H80.8062C80.9733 13.0632 81.2152 12.6871 81.5316 12.305C81.854 11.9169 82.272 11.5945 82.7854 11.3377C83.3049 11.075 83.9497 10.9437 84.7199 10.9437C85.723 10.9437 86.6484 11.2064 87.4963 11.7318C88.3441 12.2512 89.0218 13.0364 89.5293 14.0872C90.0368 15.1321 90.2905 16.4426 90.2905 18.0189C90.2905 19.5533 90.0428 20.849 89.5472 21.9058C89.0576 22.9566 88.3889 23.7537 87.5411 24.297C86.6992 24.8344 85.7558 25.103 84.711 25.103C83.9706 25.103 83.3407 24.9807 82.8213 24.7359C82.3078 24.4911 81.8869 24.1836 81.5585 23.8134C81.2301 23.4372 80.9793 23.0581 80.8062 22.676H80.636V24.8792H76.8745ZM80.6091 18.001C80.6091 18.8189 80.7226 19.5324 80.9495 20.1414C81.1763 20.7504 81.5047 21.2251 81.9346 21.5654C82.3645 21.8998 82.8869 22.067 83.5019 22.067C84.1229 22.067 84.6483 21.8968 85.0782 21.5565C85.508 21.2102 85.8334 20.7325 86.0544 20.1235C86.2812 19.5086 86.3947 18.801 86.3947 18.001C86.3947 17.2069 86.2842 16.5083 86.0633 15.9053C85.8424 15.3022 85.517 14.8306 85.0871 14.4902C84.6572 14.1499 84.1288 13.9797 83.5019 13.9797C82.881 13.9797 82.3555 14.1439 81.9257 14.4723C81.5017 14.8007 81.1763 15.2664 80.9495 15.8694C80.7226 16.4725 80.6091 17.183 80.6091 18.001ZM98.0429 25.1478C96.6517 25.1478 95.4487 24.8523 94.4337 24.2612C93.4246 23.6641 92.6454 22.8342 92.0961 21.7714C91.5468 20.7027 91.2722 19.4638 91.2722 18.0547C91.2722 16.6337 91.5468 15.3918 92.0961 14.329C92.6454 13.2603 93.4246 12.4304 94.4337 11.8393C95.4487 11.2422 96.6517 10.9437 98.0429 10.9437C99.4341 10.9437 100.634 11.2422 101.643 11.8393C102.658 12.4304 103.44 13.2603 103.99 14.329C104.539 15.3918 104.814 16.6337 104.814 18.0547C104.814 19.4638 104.539 20.7027 103.99 21.7714C103.44 22.8342 102.658 23.6641 101.643 24.2612C100.634 24.8523 99.4341 25.1478 98.0429 25.1478ZM98.0608 22.1924C98.6937 22.1924 99.2221 22.0132 99.646 21.655C100.07 21.2908 100.389 20.7952 100.604 20.1683C100.825 19.5414 100.936 18.8279 100.936 18.0278C100.936 17.2278 100.825 16.5143 100.604 15.8874C100.389 15.2604 100.07 14.7649 99.646 14.4007C99.2221 14.0365 98.6937 13.8544 98.0608 13.8544C97.422 13.8544 96.8846 14.0365 96.4487 14.4007C96.0189 14.7649 95.6935 15.2604 95.4725 15.8874C95.2576 16.5143 95.1501 17.2278 95.1501 18.0278C95.1501 18.8279 95.2576 19.5414 95.4725 20.1683C95.6935 20.7952 96.0189 21.2908 96.4487 21.655C96.8846 22.0132 97.422 22.1924 98.0608 22.1924ZM112.501 25.1478C111.11 25.1478 109.907 24.8523 108.892 24.2612C107.883 23.6641 107.104 22.8342 106.554 21.7714C106.005 20.7027 105.73 19.4638 105.73 18.0547C105.73 16.6337 106.005 15.3918 106.554 14.329C107.104 13.2603 107.883 12.4304 108.892 11.8393C109.907 11.2422 111.11 10.9437 112.501 10.9437C113.892 10.9437 115.092 11.2422 116.101 11.8393C117.116 12.4304 117.899 13.2603 118.448 14.329C118.997 15.3918 119.272 16.6337 119.272 18.0547C119.272 19.4638 118.997 20.7027 118.448 21.7714C117.899 22.8342 117.116 23.6641 116.101 24.2612C115.092 24.8523 113.892 25.1478 112.501 25.1478ZM112.519 22.1924C113.152 22.1924 113.68 22.0132 114.104 21.655C114.528 21.2908 114.848 20.7952 115.062 20.1683C115.283 19.5414 115.394 18.8279 115.394 18.0278C115.394 17.2278 115.283 16.5143 115.062 15.8874C114.848 15.2604 114.528 14.7649 114.104 14.4007C113.68 14.0365 113.152 13.8544 112.519 13.8544C111.88 13.8544 111.343 14.0365 110.907 14.4007C110.477 14.7649 110.152 15.2604 109.931 15.8874C109.716 16.5143 109.608 17.2278 109.608 18.0278C109.608 18.8279 109.716 19.5414 109.931 20.1683C110.152 20.7952 110.477 21.2908 110.907 21.655C111.343 22.0132 111.88 22.1924 112.519 22.1924ZM141.827 12.9588H137.904C137.833 12.4513 137.686 12.0005 137.466 11.6064C137.245 11.2064 136.961 10.866 136.615 10.5854C136.268 10.3048 135.868 10.0899 135.415 9.9406C134.967 9.79133 134.48 9.7167 133.955 9.7167C133.005 9.7167 132.179 9.95254 131.474 10.4242C130.769 10.8899 130.223 11.5706 129.835 12.4662C129.447 13.3558 129.253 14.4365 129.253 15.7082C129.253 17.0158 129.447 18.1144 129.835 19.004C130.229 19.8937 130.778 20.5654 131.483 21.0191C132.187 21.4729 133.002 21.6998 133.928 21.6998C134.447 21.6998 134.928 21.6311 135.37 21.4938C135.818 21.3565 136.215 21.1565 136.561 20.8937C136.907 20.6251 137.194 20.2997 137.421 19.9175C137.654 19.5354 137.815 19.0996 137.904 18.61L141.827 18.6279C141.726 19.4697 141.472 20.2818 141.066 21.0639C140.666 21.8401 140.125 22.5357 139.445 23.1506C138.77 23.7597 137.964 24.2433 137.027 24.6015C136.095 24.9538 135.041 25.1299 133.865 25.1299C132.229 25.1299 130.766 24.7597 129.477 24.0194C128.193 23.279 127.178 22.2073 126.432 20.8042C125.691 19.4011 125.321 17.7024 125.321 15.7082C125.321 13.7081 125.697 12.0064 126.45 10.6033C127.202 9.20024 128.223 8.13149 129.513 7.39711C130.802 6.65675 132.253 6.28656 133.865 6.28656C134.928 6.28656 135.913 6.43583 136.821 6.73436C137.734 7.0329 138.543 7.46875 139.248 8.04193C139.952 8.60915 140.525 9.30473 140.967 10.1287C141.415 10.9526 141.702 11.896 141.827 12.9588ZM143.527 24.8792V11.1228H147.226V13.523H147.37C147.62 12.6692 148.041 12.0244 148.632 11.5885C149.223 11.1467 149.904 10.9258 150.674 10.9258C150.865 10.9258 151.071 10.9377 151.292 10.9616C151.513 10.9855 151.707 11.0183 151.874 11.0601V14.4454C151.695 14.3917 151.448 14.3439 151.131 14.3022C150.815 14.2604 150.525 14.2395 150.262 14.2395C149.701 14.2395 149.2 14.3619 148.758 14.6067C148.322 14.8455 147.976 15.1798 147.719 15.6097C147.468 16.0396 147.343 16.5352 147.343 17.0964V24.8792H143.527ZM155.612 30.0378C155.129 30.0378 154.675 29.999 154.251 29.9214C153.833 29.8497 153.487 29.7572 153.212 29.6437L154.072 26.7957C154.52 26.9331 154.923 27.0077 155.281 27.0196C155.645 27.0316 155.959 26.948 156.221 26.7689C156.49 26.5897 156.708 26.2852 156.875 25.8554L157.099 25.2732L152.164 11.1228H156.177L159.025 21.2251H159.168L162.043 11.1228H166.082L160.735 26.3658C160.478 27.1062 160.129 27.751 159.687 28.3003C159.251 28.8556 158.699 29.2825 158.03 29.581C157.362 29.8855 156.556 30.0378 155.612 30.0378ZM167.025 30.0378V11.1228H170.787V13.4334H170.957C171.124 13.0632 171.366 12.6871 171.683 12.305C172.005 11.9169 172.423 11.5945 172.936 11.3377C173.456 11.075 174.101 10.9437 174.871 10.9437C175.874 10.9437 176.799 11.2064 177.647 11.7318C178.495 12.2512 179.173 13.0364 179.68 14.0872C180.188 15.1321 180.441 16.4426 180.441 18.0189C180.441 19.5533 180.194 20.849 179.698 21.9058C179.209 22.9566 178.54 23.7537 177.692 24.297C176.85 24.8344 175.907 25.103 174.862 25.103C174.122 25.103 173.492 24.9807 172.972 24.7359C172.459 24.4911 172.038 24.1836 171.709 23.8134C171.381 23.4372 171.13 23.0581 170.957 22.676H170.841V30.0378H167.025ZM170.76 18.001C170.76 18.8189 170.874 19.5324 171.1 20.1414C171.327 20.7504 171.656 21.2251 172.086 21.5654C172.515 21.8998 173.038 22.067 173.653 22.067C174.274 22.067 174.799 21.8968 175.229 21.5565C175.659 21.2102 175.984 20.7325 176.205 20.1235C176.432 19.5086 176.546 18.801 176.546 18.001C176.546 17.2069 176.435 16.5083 176.214 15.9053C175.993 15.3022 175.668 14.8306 175.238 14.4902C174.808 14.1499 174.28 13.9797 173.653 13.9797C173.032 13.9797 172.506 14.1439 172.077 14.4723C171.653 14.8007 171.327 15.2664 171.1 15.8694C170.874 16.4725 170.76 17.183 170.76 18.001ZM189.293 11.1228V13.9887H181.009V11.1228H189.293ZM182.89 7.82699H186.705V20.6519C186.705 21.0042 186.759 21.2789 186.866 21.4759C186.974 21.6669 187.123 21.8013 187.314 21.8789C187.511 21.9565 187.738 21.9953 187.995 21.9953C188.174 21.9953 188.353 21.9804 188.532 21.9505C188.711 21.9147 188.848 21.8879 188.944 21.8699L189.544 24.709C189.353 24.7687 189.084 24.8374 188.738 24.915C188.392 24.9986 187.971 25.0493 187.475 25.0672C186.556 25.103 185.75 24.9807 185.057 24.7C184.37 24.4194 183.836 23.9836 183.454 23.3925C183.072 22.8014 182.884 22.055 182.89 21.1535V7.82699ZM196.837 25.1478C195.446 25.1478 194.243 24.8523 193.228 24.2612C192.219 23.6641 191.44 22.8342 190.891 21.7714C190.341 20.7027 190.067 19.4638 190.067 18.0547C190.067 16.6337 190.341 15.3918 190.891 14.329C191.44 13.2603 192.219 12.4304 193.228 11.8393C194.243 11.2422 195.446 10.9437 196.837 10.9437C198.228 10.9437 199.429 11.2422 200.438 11.8393C201.453 12.4304 202.235 13.2603 202.784 14.329C203.333 15.3918 203.608 16.6337 203.608 18.0547C203.608 19.4638 203.333 20.7027 202.784 21.7714C202.235 22.8342 201.453 23.6641 200.438 24.2612C199.429 24.8523 198.228 25.1478 196.837 25.1478ZM196.855 22.1924C197.488 22.1924 198.017 22.0132 198.44 21.655C198.864 21.2908 199.184 20.7952 199.399 20.1683C199.62 19.5414 199.73 18.8279 199.73 18.0278C199.73 17.2278 199.62 16.5143 199.399 15.8874C199.184 15.2604 198.864 14.7649 198.44 14.4007C198.017 14.0365 197.488 13.8544 196.855 13.8544C196.216 13.8544 195.679 14.0365 195.243 14.4007C194.813 14.7649 194.488 15.2604 194.267 15.8874C194.052 16.5143 193.945 17.2278 193.945 18.0278C193.945 18.8279 194.052 19.5414 194.267 20.1683C194.488 20.7952 194.813 21.2908 195.243 21.655C195.679 22.0132 196.216 22.1924 196.855 22.1924Z" fill="white"/>
</svg>
